<?xml version="1.0" encoding="UTF-8" standalone="no"?>
<!DOCTYPE svg PUBLIC "-//W3C//DTD SVG 1.1//EN"
 "http://www.w3.org/Graphics/SVG/1.1/DTD/svg11.dtd">
<!-- Generated by graphviz version 2.38.0 (20140413.2041)
 -->
<!-- Title: Model Pages: 1 -->
<svg width="396pt" height="368pt"
 viewBox="0.00 0.00 396.00 368.00" xmlns="http://www.w3.org/2000/svg" xmlns:xlink="http://www.w3.org/1999/xlink">
<g id="graph0" class="graph" transform="scale(1 1) rotate(0) translate(4 364)">
<title>Model</title>
<polygon fill="white" stroke="none" points="-4,4 -4,-364 392,-364 392,4 -4,4"/>
<!-- node0 -->
<g id="node1" class="node"><title>node0</title>
<path fill="none" stroke="none" d="M282.5,-279C282.5,-279 239.5,-279 239.5,-279 233.5,-279 227.5,-273 227.5,-267 227.5,-267 227.5,-255 227.5,-255 227.5,-249 233.5,-243 239.5,-243 239.5,-243 282.5,-243 282.5,-243 288.5,-243 294.5,-249 294.5,-255 294.5,-255 294.5,-267 294.5,-267 294.5,-273 288.5,-279 282.5,-279"/>
<text text-anchor="middle" x="261" y="-258.8" font-family="Times New Roman,serif" font-size="9.00" fill="#000000">Bernoulli(0.5)</text>
</g>
<!-- node1 -->
<g id="node2" class="node"><title>node1</title>
<path fill="#000000" stroke="black" d="M276,-198C276,-198 246,-198 246,-198 240,-198 234,-192 234,-186 234,-186 234,-174 234,-174 234,-168 240,-162 246,-162 246,-162 276,-162 276,-162 282,-162 288,-168 288,-174 288,-174 288,-186 288,-186 288,-192 282,-198 276,-198"/>
<text text-anchor="middle" x="261" y="-178.1" font-family="Times New Roman,serif" font-size="8.00" fill="#ffffff">Random</text>
</g>
<!-- node0&#45;&gt;node1 -->
<g id="edge1" class="edge"><title>node0&#45;&gt;node1</title>
<path fill="none" stroke="black" d="M261,-242.858C261,-232.713 261,-219.634 261,-208.117"/>
<polygon fill="black" stroke="black" points="264.5,-208.108 261,-198.108 257.5,-208.108 264.5,-208.108"/>
<text text-anchor="middle" x="267.5" y="-218.6" font-family="Times New Roman,serif" font-size="8.00" fill="#d3d3d3">dist</text>
</g>
<!-- node2 -->
<g id="node3" class="node"><title>node2</title>
<path fill="none" stroke="black" d="M282.5,-117C282.5,-117 247.5,-117 247.5,-117 241.5,-117 235.5,-111 235.5,-105 235.5,-105 235.5,-93 235.5,-93 235.5,-87 241.5,-81 247.5,-81 247.5,-81 282.5,-81 282.5,-81 288.5,-81 294.5,-87 294.5,-93 294.5,-93 294.5,-105 294.5,-105 294.5,-111 288.5,-117 282.5,-117"/>
<text text-anchor="middle" x="265" y="-96.5" font-family="Times New Roman,serif" font-size="10.00" fill="#0000ff">isEffective</text>
</g>
<!-- node1&#45;&gt;node2 -->
<g id="edge2" class="edge"><title>node1&#45;&gt;node2</title>
<path fill="none" stroke="black" d="M261.868,-161.858C262.382,-151.713 263.044,-138.634 263.627,-127.117"/>
<polygon fill="black" stroke="black" points="267.123,-127.273 264.134,-117.108 260.132,-126.919 267.123,-127.273"/>
</g>
<!-- node7 -->
<g id="node8" class="node"><title>node7</title>
<path fill="none" stroke="none" d="M145,-36C145,-36 91,-36 91,-36 85,-36 79,-30 79,-24 79,-24 79,-12 79,-12 79,-6 85,-0 91,-0 91,-0 145,-0 145,-0 151,-0 157,-6 157,-12 157,-12 157,-24 157,-24 157,-30 151,-36 145,-36"/>
<text text-anchor="middle" x="118" y="-15.5" font-family="Times New Roman,serif" font-size="10.00" fill="#0000ff">controlGroup[i]</text>
</g>
<!-- node2&#45;&gt;node7 -->
<g id="edge7" class="edge"><title>node2&#45;&gt;node7</title>
<path fill="none" stroke="black" d="M235.252,-82.0132C213.233,-70.1795 182.976,-53.919 158.714,-40.8803"/>
<polygon fill="black" stroke="black" points="160.204,-37.7076 149.738,-36.0567 156.89,-43.8736 160.204,-37.7076"/>
<text text-anchor="middle" x="213" y="-56.6" font-family="Times New Roman,serif" font-size="8.00" fill="#d3d3d3">condition</text>
</g>
<!-- node12 -->
<g id="node13" class="node"><title>node12</title>
<path fill="none" stroke="none" d="M306.5,-36C306.5,-36 253.5,-36 253.5,-36 247.5,-36 241.5,-30 241.5,-24 241.5,-24 241.5,-12 241.5,-12 241.5,-6 247.5,-0 253.5,-0 253.5,-0 306.5,-0 306.5,-0 312.5,-0 318.5,-6 318.5,-12 318.5,-12 318.5,-24 318.5,-24 318.5,-30 312.5,-36 306.5,-36"/>
<text text-anchor="middle" x="280" y="-15.5" font-family="Times New Roman,serif" font-size="10.00" fill="#0000ff">treatedGroup[j]</text>
</g>
<!-- node2&#45;&gt;node12 -->
<g id="edge12" class="edge"><title>node2&#45;&gt;node12</title>
<path fill="none" stroke="black" d="M268.255,-80.8582C270.181,-70.7129 272.665,-57.6336 274.851,-46.1168"/>
<polygon fill="black" stroke="black" points="278.325,-46.5858 276.752,-36.1084 271.448,-45.2799 278.325,-46.5858"/>
<text text-anchor="middle" x="290" y="-56.6" font-family="Times New Roman,serif" font-size="8.00" fill="#d3d3d3">condition</text>
</g>
<!-- node3 -->
<g id="node4" class="node"><title>node3</title>
<path fill="none" stroke="none" d="M80,-360C80,-360 12,-360 12,-360 6,-360 0,-354 0,-348 0,-348 0,-336 0,-336 0,-330 6,-324 12,-324 12,-324 80,-324 80,-324 86,-324 92,-330 92,-336 92,-336 92,-348 92,-348 92,-354 86,-360 80,-360"/>
<text text-anchor="middle" x="46" y="-339.8" font-family="Times New Roman,serif" font-size="9.00" fill="#000000">Beta(1,1)[mean=0.5]</text>
</g>
<!-- node4 -->
<g id="node5" class="node"><title>node4</title>
<path fill="#000000" stroke="black" d="M61,-279C61,-279 31,-279 31,-279 25,-279 19,-273 19,-267 19,-267 19,-255 19,-255 19,-249 25,-243 31,-243 31,-243 61,-243 61,-243 67,-243 73,-249 73,-255 73,-255 73,-267 73,-267 73,-273 67,-279 61,-279"/>
<text text-anchor="middle" x="46" y="-259.1" font-family="Times New Roman,serif" font-size="8.00" fill="#ffffff">Random</text>
</g>
<!-- node3&#45;&gt;node4 -->
<g id="edge3" class="edge"><title>node3&#45;&gt;node4</title>
<path fill="none" stroke="black" d="M46,-323.858C46,-313.713 46,-300.634 46,-289.117"/>
<polygon fill="black" stroke="black" points="49.5001,-289.108 46,-279.108 42.5001,-289.108 49.5001,-289.108"/>
<text text-anchor="middle" x="52.5" y="-299.6" font-family="Times New Roman,serif" font-size="8.00" fill="#d3d3d3">dist</text>
</g>
<!-- node5 -->
<g id="node6" class="node"><title>node5</title>
<path fill="none" stroke="black" d="M69.5,-198C69.5,-198 22.5,-198 22.5,-198 16.5,-198 10.5,-192 10.5,-186 10.5,-186 10.5,-174 10.5,-174 10.5,-168 16.5,-162 22.5,-162 22.5,-162 69.5,-162 69.5,-162 75.5,-162 81.5,-168 81.5,-174 81.5,-174 81.5,-186 81.5,-186 81.5,-192 75.5,-198 69.5,-198"/>
<text text-anchor="middle" x="46" y="-177.5" font-family="Times New Roman,serif" font-size="10.00" fill="#0000ff">probIfControl</text>
</g>
<!-- node4&#45;&gt;node5 -->
<g id="edge4" class="edge"><title>node4&#45;&gt;node5</title>
<path fill="none" stroke="black" d="M46,-242.858C46,-232.713 46,-219.634 46,-208.117"/>
<polygon fill="black" stroke="black" points="49.5001,-208.108 46,-198.108 42.5001,-208.108 49.5001,-208.108"/>
</g>
<!-- node6 -->
<g id="node7" class="node"><title>node6</title>
<path fill="#000000" stroke="black" d="M61,-117C61,-117 31,-117 31,-117 25,-117 19,-111 19,-105 19,-105 19,-93 19,-93 19,-87 25,-81 31,-81 31,-81 61,-81 61,-81 67,-81 73,-87 73,-93 73,-93 73,-105 73,-105 73,-111 67,-117 61,-117"/>
<text text-anchor="middle" x="46" y="-97.1" font-family="Times New Roman,serif" font-size="8.00" fill="#ffffff">Bernoulli</text>
</g>
<!-- node5&#45;&gt;node6 -->
<g id="edge5" class="edge"><title>node5&#45;&gt;node6</title>
<path fill="none" stroke="black" d="M46,-161.858C46,-151.713 46,-138.634 46,-127.117"/>
<polygon fill="black" stroke="black" points="49.5001,-127.108 46,-117.108 42.5001,-127.108 49.5001,-127.108"/>
<text text-anchor="middle" x="62.5" y="-137.6" font-family="Times New Roman,serif" font-size="8.00" fill="#d3d3d3">probTrue</text>
</g>
<!-- node6&#45;&gt;node7 -->
<g id="edge6" class="edge"><title>node6&#45;&gt;node7</title>
<path fill="none" stroke="black" d="M61.6229,-80.8582C71.5297,-69.9883 84.5062,-55.7501 95.5119,-43.6744"/>
<polygon fill="black" stroke="black" points="98.2583,-45.8569 102.408,-36.1084 93.0847,-41.1417 98.2583,-45.8569"/>
</g>
<!-- node8 -->
<g id="node9" class="node"><title>node8</title>
<path fill="none" stroke="none" d="M376,-360C376,-360 308,-360 308,-360 302,-360 296,-354 296,-348 296,-348 296,-336 296,-336 296,-330 302,-324 308,-324 308,-324 376,-324 376,-324 382,-324 388,-330 388,-336 388,-336 388,-348 388,-348 388,-354 382,-360 376,-360"/>
<text text-anchor="middle" x="342" y="-339.8" font-family="Times New Roman,serif" font-size="9.00" fill="#000000">Beta(1,1)[mean=0.5]</text>
</g>
<!-- node9 -->
<g id="node10" class="node"><title>node9</title>
<path fill="#000000" stroke="black" d="M357,-279C357,-279 327,-279 327,-279 321,-279 315,-273 315,-267 315,-267 315,-255 315,-255 315,-249 321,-243 327,-243 327,-243 357,-243 357,-243 363,-243 369,-249 369,-255 369,-255 369,-267 369,-267 369,-273 363,-279 357,-279"/>
<text text-anchor="middle" x="342" y="-259.1" font-family="Times New Roman,serif" font-size="8.00" fill="#ffffff">Random</text>
</g>
<!-- node8&#45;&gt;node9 -->
<g id="edge8" class="edge"><title>node8&#45;&gt;node9</title>
<path fill="none" stroke="black" d="M342,-323.858C342,-313.713 342,-300.634 342,-289.117"/>
<polygon fill="black" stroke="black" points="345.5,-289.108 342,-279.108 338.5,-289.108 345.5,-289.108"/>
<text text-anchor="middle" x="348.5" y="-299.6" font-family="Times New Roman,serif" font-size="8.00" fill="#d3d3d3">dist</text>
</g>
<!-- node10 -->
<g id="node11" class="node"><title>node10</title>
<path fill="none" stroke="black" d="M366,-198C366,-198 318,-198 318,-198 312,-198 306,-192 306,-186 306,-186 306,-174 306,-174 306,-168 312,-162 318,-162 318,-162 366,-162 366,-162 372,-162 378,-168 378,-174 378,-174 378,-186 378,-186 378,-192 372,-198 366,-198"/>
<text text-anchor="middle" x="342" y="-177.5" font-family="Times New Roman,serif" font-size="10.00" fill="#0000ff">probIfTreated</text>
</g>
<!-- node9&#45;&gt;node10 -->
<g id="edge9" class="edge"><title>node9&#45;&gt;node10</title>
<path fill="none" stroke="black" d="M342,-242.858C342,-232.713 342,-219.634 342,-208.117"/>
<polygon fill="black" stroke="black" points="345.5,-208.108 342,-198.108 338.5,-208.108 345.5,-208.108"/>
</g>
<!-- node11 -->
<g id="node12" class="node"><title>node11</title>
<path fill="#000000" stroke="black" d="M355,-117C355,-117 325,-117 325,-117 319,-117 313,-111 313,-105 313,-105 313,-93 313,-93 313,-87 319,-81 325,-81 325,-81 355,-81 355,-81 361,-81 367,-87 367,-93 367,-93 367,-105 367,-105 367,-111 361,-117 355,-117"/>
<text text-anchor="middle" x="340" y="-97.1" font-family="Times New Roman,serif" font-size="8.00" fill="#ffffff">Bernoulli</text>
</g>
<!-- node10&#45;&gt;node11 -->
<g id="edge10" class="edge"><title>node10&#45;&gt;node11</title>
<path fill="none" stroke="black" d="M341.566,-161.858C341.309,-151.713 340.978,-138.634 340.687,-127.117"/>
<polygon fill="black" stroke="black" points="344.185,-127.017 340.433,-117.108 337.187,-127.194 344.185,-127.017"/>
<text text-anchor="middle" x="357.5" y="-137.6" font-family="Times New Roman,serif" font-size="8.00" fill="#d3d3d3">probTrue</text>
</g>
<!-- node11&#45;&gt;node12 -->
<g id="edge11" class="edge"><title>node11&#45;&gt;node12</title>
<path fill="none" stroke="black" d="M329.528,-80.8975C324.24,-72.5872 317.566,-62.5693 311,-54 308.39,-50.5932 305.535,-47.1005 302.649,-43.7029"/>
<polygon fill="black" stroke="black" points="305.167,-41.2661 295.955,-36.0325 299.893,-45.8685 305.167,-41.2661"/>
</g>
<!-- node13 -->
<g id="node14" class="node"><title>node13</title>
<path fill="none" stroke="none" d="M204,-360C204,-360 136,-360 136,-360 130,-360 124,-354 124,-348 124,-348 124,-336 124,-336 124,-330 130,-324 136,-324 136,-324 204,-324 204,-324 210,-324 216,-330 216,-336 216,-336 216,-348 216,-348 216,-354 210,-360 204,-360"/>
<text text-anchor="middle" x="170" y="-339.8" font-family="Times New Roman,serif" font-size="9.00" fill="#000000">Beta(1,1)[mean=0.5]</text>
</g>
<!-- node14 -->
<g id="node15" class="node"><title>node14</title>
<path fill="#000000" stroke="black" d="M185,-279C185,-279 155,-279 155,-279 149,-279 143,-273 143,-267 143,-267 143,-255 143,-255 143,-249 149,-243 155,-243 155,-243 185,-243 185,-243 191,-243 197,-249 197,-255 197,-255 197,-267 197,-267 197,-273 191,-279 185,-279"/>
<text text-anchor="middle" x="170" y="-259.1" font-family="Times New Roman,serif" font-size="8.00" fill="#ffffff">Random</text>
</g>
<!-- node13&#45;&gt;node14 -->
<g id="edge13" class="edge"><title>node13&#45;&gt;node14</title>
<path fill="none" stroke="black" d="M170,-323.858C170,-313.713 170,-300.634 170,-289.117"/>
<polygon fill="black" stroke="black" points="173.5,-289.108 170,-279.108 166.5,-289.108 173.5,-289.108"/>
<text text-anchor="middle" x="176.5" y="-299.6" font-family="Times New Roman,serif" font-size="8.00" fill="#d3d3d3">dist</text>
</g>
<!-- node15 -->
<g id="node16" class="node"><title>node15</title>
<path fill="none" stroke="black" d="M185,-198C185,-198 155,-198 155,-198 149,-198 143,-192 143,-186 143,-186 143,-174 143,-174 143,-168 149,-162 155,-162 155,-162 185,-162 185,-162 191,-162 197,-168 197,-174 197,-174 197,-186 197,-186 197,-192 191,-198 185,-198"/>
<text text-anchor="middle" x="170" y="-177.5" font-family="Times New Roman,serif" font-size="10.00" fill="#0000ff">probAll</text>
</g>
<!-- node14&#45;&gt;node15 -->
<g id="edge14" class="edge"><title>node14&#45;&gt;node15</title>
<path fill="none" stroke="black" d="M170,-242.858C170,-232.713 170,-219.634 170,-208.117"/>
<polygon fill="black" stroke="black" points="173.5,-208.108 170,-198.108 166.5,-208.108 173.5,-208.108"/>
</g>
<!-- node16 -->
<g id="node17" class="node"><title>node16</title>
<path fill="#000000" stroke="black" d="M133,-117C133,-117 103,-117 103,-117 97,-117 91,-111 91,-105 91,-105 91,-93 91,-93 91,-87 97,-81 103,-81 103,-81 133,-81 133,-81 139,-81 145,-87 145,-93 145,-93 145,-105 145,-105 145,-111 139,-117 133,-117"/>
<text text-anchor="middle" x="118" y="-97.1" font-family="Times New Roman,serif" font-size="8.00" fill="#ffffff">Bernoulli</text>
</g>
<!-- node15&#45;&gt;node16 -->
<g id="edge15" class="edge"><title>node15&#45;&gt;node16</title>
<path fill="none" stroke="black" d="M156.047,-161.908C151.696,-156.321 146.995,-150.007 143,-144 139.232,-138.335 135.457,-132.071 132.022,-126.089"/>
<polygon fill="black" stroke="black" points="134.898,-124.061 126.957,-117.047 128.791,-127.482 134.898,-124.061"/>
<text text-anchor="middle" x="159.5" y="-137.6" font-family="Times New Roman,serif" font-size="8.00" fill="#d3d3d3">probTrue</text>
</g>
<!-- node17 -->
<g id="node18" class="node"><title>node17</title>
<path fill="#000000" stroke="black" d="M205,-117C205,-117 175,-117 175,-117 169,-117 163,-111 163,-105 163,-105 163,-93 163,-93 163,-87 169,-81 175,-81 175,-81 205,-81 205,-81 211,-81 217,-87 217,-93 217,-93 217,-105 217,-105 217,-111 211,-117 205,-117"/>
<text text-anchor="middle" x="190" y="-97.1" font-family="Times New Roman,serif" font-size="8.00" fill="#ffffff">Bernoulli</text>
</g>
<!-- node15&#45;&gt;node17 -->
<g id="edge17" class="edge"><title>node15&#45;&gt;node17</title>
<path fill="none" stroke="black" d="M174.34,-161.858C176.908,-151.713 180.219,-138.634 183.135,-127.117"/>
<polygon fill="black" stroke="black" points="186.607,-127.662 185.669,-117.108 179.822,-125.944 186.607,-127.662"/>
<text text-anchor="middle" x="197.5" y="-137.6" font-family="Times New Roman,serif" font-size="8.00" fill="#d3d3d3">probTrue</text>
</g>
<!-- node16&#45;&gt;node7 -->
<g id="edge16" class="edge"><title>node16&#45;&gt;node7</title>
<path fill="none" stroke="black" d="M118,-80.8582C118,-70.7129 118,-57.6336 118,-46.1168"/>
<polygon fill="black" stroke="black" points="121.5,-46.1083 118,-36.1084 114.5,-46.1084 121.5,-46.1083"/>
</g>
<!-- node17&#45;&gt;node12 -->
<g id="edge18" class="edge"><title>node17&#45;&gt;node12</title>
<path fill="none" stroke="black" d="M192.079,-80.9106C193.928,-72.0052 197.418,-61.4492 204,-54 211.511,-45.4986 221.512,-38.927 231.785,-33.8989"/>
<polygon fill="black" stroke="black" points="233.513,-36.9612 241.232,-29.704 230.672,-30.5636 233.513,-36.9612"/>
</g>
</g>
</svg>
